<svg width="512" height="512" viewBox="0 0 512 512" fill="none" xmlns="http://www.w3.org/2000/svg">
<g clip-path="url(#clip0)">
<path d="M462.687 340.574L271.151 140.915C264.561 134.046 253.653 133.821 246.787 140.41C239.919 146.999 239.693 157.906 246.282 164.774L254.062 172.884C253.742 173.185 253.424 173.486 253.114 173.8C245.426 181.618 238.841 190.033 233.191 198.843C230.905 162.03 229.53 135.784 228.522 116.58C225.863 65.872 225.449 57.978 214.925 40.465C207.358 27.696 196.33 17.205 183.024 10.123C170.581 3.5 156.421 0 142.072 0C113.356 0 87.152 13.48 70.178 36.986C69.764 37.559 69.368 38.146 68.991 38.744C56.154 59.101 55.894 75.663 55.665 90.276C55.601 94.374 55.534 98.611 55.182 103.209C55.089 104.427 55.065 105.643 55.103 106.852C48.885 109.453 44.514 115.591 44.514 122.753C44.514 132.27 52.23 139.985 61.746 139.985H118.4C119.569 139.985 120.709 139.866 121.813 139.644C121.806 140.2 121.799 140.761 121.793 141.332C121.703 148.6 121.6 156.988 121.49 166.689H108.378C98.861 166.689 91.146 174.405 91.146 183.921C91.146 193.437 98.862 201.153 108.378 201.153H120.191L119.223 215.689C118.992 218.893 118.768 222 118.546 225.058H100.326C99.678 216.133 92.248 209.088 83.157 209.088C73.64 209.088 65.925 216.804 65.925 226.32V258.596C65.925 268.113 73.641 275.828 83.157 275.828C92.361 275.828 99.859 268.605 100.343 259.522H116.047C113.111 299.799 110.956 328.606 108.061 367.302L108.093 367.304C108.029 368.089 107.988 368.892 107.973 369.716C106.542 393.012 106.525 419.277 116.262 439.736C126.069 464.966 142.985 483.759 167.929 497.151C186.279 507.003 205.626 511.998 225.433 511.998C243.182 511.998 261.145 507.967 278.824 500.02C292.451 493.894 305.957 485.411 318.968 474.808C339.9 457.75 355.163 438.632 360.883 430.025C361.074 429.738 361.261 429.447 361.443 429.154C390.581 382.246 422.908 360.242 423.227 360.034C425.344 358.644 427.276 357.032 429.002 355.242L437.819 364.433C441.202 367.96 445.726 369.736 450.256 369.736C454.547 369.736 458.842 368.143 462.183 364.939C469.048 358.35 469.275 347.442 462.687 340.574ZM332.749 411.331C325.929 421.594 281.684 478.223 225.431 478.223C212.147 478.223 198.194 475.066 183.905 467.393C164.683 457.072 153.785 443.799 147.259 426.229C139.565 411.385 140.815 385.546 141.735 370.967C141.737 371.074 141.738 371.119 141.738 371.119C141.745 371.119 141.734 369.819 141.74 369.819C141.74 369.819 141.74 369.82 141.741 369.824C145.731 316.5 148.199 283.468 152.918 218.025C153.643 207.136 154.359 196.381 155.064 185.801C155.792 113.152 156.457 100.438 155.124 84.371C154.04 71.857 145.734 65.982 139.735 65.982C139.718 65.982 139.701 65.982 139.683 65.982C127.932 66.048 122.899 74.799 120.904 80.856C119.382 84.893 118.132 94.314 118.964 105.55C118.775 105.544 118.59 105.522 118.4 105.522H88.879C90.47 84.29 87.051 73.427 97.562 56.76C108.882 41.085 125.704 33.778 142.072 33.778C159.668 33.778 176.738 42.214 185.912 57.765C196.713 75.704 189.158 68.793 207.494 318.403C207.528 318.86 211.375 372.25 211.728 372.25C211.729 372.25 211.73 372.25 211.731 372.249C212.521 372.988 211.034 387.914 222.489 387.914C222.567 387.914 222.644 387.913 222.724 387.912C241.8 387.578 213.353 262.413 277.196 197.483L396.367 323.039L404.684 331.802C404.686 331.8 366.632 356.787 332.749 411.331Z" fill="white" fill-opacity="0.9"/>
</g>
<defs>
<clipPath id="clip0">
<rect width="511.998" height="511.998" fill="white"/>
</clipPath>
</defs>
</svg>
